<?xml version="1.0" encoding="UTF-8"?>
<svg version="1.1" xmlns="http://www.w3.org/2000/svg" width="128" height="128">
<path d="M0 0 C0 0.99 0 1.98 0 3 C-2.03702141 4.46592245 -4.03028148 5.73479232 -6.1875 7 C-18.7364593 14.766342 -28.47294943 23.16865206 -36 36 C-36.40089844 36.67289063 -36.80179688 37.34578125 -37.21484375 38.0390625 C-40.61944056 45.16204384 -40.02380322 55.41116772 -38.34375 62.94140625 C-30.88060605 83.49722083 -8.76187058 93.84074826 9 104 C8.505 105.485 8.505 105.485 8 107 C-15.4083304 105.49480802 -36.12935338 98.97528881 -53 82 C-62.07621047 71.27073401 -64.84573142 60.92324503 -64 47 C-61.92038519 32.88329267 -55.13912842 21.85833372 -43.76171875 13.3203125 C-33.81368535 6.86663033 -22.13014153 3.32464392 -10.6875 0.5625 C-9.60263306 0.29832275 -9.60263306 0.29832275 -8.49584961 0.02880859 C-5.16048442 -0.72476193 -3.30471001 -1.10157 0 0 Z M-43.9921875 18.328125 C-52.29509561 24.74904061 -58.30111506 35.70417142 -60 46 C-60.94402794 57.55759916 -59.80990463 66.73629782 -52.5703125 76.1640625 C-40.81791658 89.98126987 -24.76251316 98.52888894 -7 102 C-6.01 101.67 -5.02 101.34 -4 101 C-5.03898437 100.38253906 -6.07796875 99.76507813 -7.1484375 99.12890625 C-15.50310438 94.08781582 -23.09879077 88.975549 -30 82 C-30.72832031 81.30519531 -31.45664063 80.61039062 -32.20703125 79.89453125 C-39.84305619 72.11683609 -43.22034669 63.23560843 -43.5625 52.375 C-42.95116775 36.70558908 -34.65032041 24.98303305 -23.66796875 14.39453125 C-20.582057 11.62489157 -17.48226728 9.2441278 -14 7 C-22.78055314 3.59356854 -36.78732563 13.52488375 -43.9921875 18.328125 Z " fill="#000000" transform="translate(101,11)"/>
<path d="M0 0 C3.58559961 2.21239125 5.39116876 4.15707123 7 8 C7.71852961 12.59524753 7.39603259 16.1445696 5.4375 20.375 C2.39603219 23.65042687 0.33567149 24.86277469 -4 26 C-8.92446339 25.79727767 -12.16577344 24.67780908 -16 21.5625 C-18.89963059 17.84734831 -19.35479511 14.74400414 -19.27734375 10.0625 C-18.8083752 6.57495927 -17.29403799 4.5958851 -15 2 C-10.08715913 -1.54181551 -5.672626 -1.54898275 0 0 Z M-13 5 C-15.67109499 9.00664248 -15.93992648 12.29212262 -15 17 C-12.75510649 20.36734027 -9.95675578 21.80067588 -6 22.625 C-1.83207066 21.75668139 0.11123215 20.09030979 3 17 C4.38666474 13.16627983 4.21605148 11.56173386 2.75 7.75 C1.12940334 4.79437278 1.12940334 4.79437278 -2 3 C-6.17976235 2.69601728 -9.49374541 2.53263566 -13 5 Z " fill="#000000" transform="translate(37,11)"/>
</svg>
